<?xml version="1.0" standalone="no"?>
<!DOCTYPE svg PUBLIC "-//W3C//DTD SVG 20010904//EN"
 "http://www.w3.org/TR/2001/REC-SVG-20010904/DTD/svg10.dtd">
<svg version="1.0" xmlns="http://www.w3.org/2000/svg"
 width="535.000000pt" height="576.000000pt" viewBox="0 0 535.000000 576.000000"
 preserveAspectRatio="xMidYMid meet">

<g transform="translate(0.000000,576.000000) scale(0.100000,-0.100000)"
fill="#000000" stroke="none">
<path d="M131 5646 c-8 -10 -10 -742 -9 -2787 l3 -2774 2568 -3 2567 -2 -2
2787 -3 2788 -2556 3 c-2142 2 -2558 0 -2568 -12z m5037 -2779 l2 -2697 -2477
2 -2478 3 -3 2685 c-1 1477 0 2691 3 2698 3 10 504 12 2477 10 l2473 -3 3
-2698z"/>
<path d="M3067 5243 c-9 -8 -9 -4725 -1 -4747 6 -14 96 -16 920 -16 l914 0 0
619 0 618 -95 82 c-52 45 -95 86 -95 91 0 6 41 10 95 10 l95 0 0 1675 0 1675
-913 0 c-503 0 -917 -3 -920 -7z m1748 -1668 l0 -1580 -832 -3 -833 -2 0 1585
0 1585 833 -2 832 -3 0 -1580z m-193 -1736 c40 -34 93 -78 117 -98 90 -73 81
-4 81 -609 0 -295 -4 -543 -8 -550 -7 -10 -180 -12 -833 -10 l-824 3 -3 650
c-1 358 0 656 3 663 3 9 152 12 699 12 l694 0 74 -61z"/>
<path d="M800 2929 c0 -1573 -3 -2316 -10 -2330 -10 -17 -22 -19 -115 -19
l-105 0 0 -40 0 -40 270 0 270 0 0 40 0 39 -112 3 -113 3 -3 2248 c-2 2087 1
2331 22 2225 6 -29 15 -73 25 -123 5 -22 34 -159 66 -305 31 -146 60 -285 65
-310 5 -25 13 -65 19 -90 32 -143 129 -599 172 -805 4 -22 24 -116 44 -210 20
-93 50 -231 65 -305 45 -212 98 -463 131 -615 17 -77 35 -160 39 -185 5 -25
17 -85 28 -135 11 -49 37 -169 57 -265 21 -96 41 -191 45 -210 4 -19 15 -71
24 -115 9 -44 21 -98 26 -120 5 -22 19 -85 30 -140 12 -55 27 -129 35 -165 8
-36 23 -110 35 -165 11 -55 25 -118 30 -140 4 -22 14 -66 21 -97 l12 -58 209
0 208 0 0 2298 c0 1774 3 2301 12 2310 8 8 48 12 116 12 l103 0 -3 38 -3 37
-274 3 c-164 1 -278 -2 -285 -7 -7 -6 -11 -23 -11 -38 l2 -28 122 -5 c93 -4
124 -8 131 -20 14 -22 13 -4475 0 -4501 -10 -17 -22 -19 -123 -19 -62 0 -118
4 -126 9 -8 5 -20 38 -28 73 -20 97 -54 258 -63 303 -5 22 -23 105 -40 185
-47 220 -80 370 -90 420 -11 56 -57 272 -105 495 -20 94 -41 190 -46 215 -5
25 -17 86 -28 135 -11 50 -36 169 -56 265 -21 96 -41 191 -45 210 -4 19 -17
80 -29 135 -11 55 -30 143 -41 195 -11 52 -31 147 -45 210 -13 63 -34 160 -46
215 -12 55 -25 118 -29 140 -7 37 -29 140 -96 450 -15 66 -30 140 -34 165 -8
40 -37 177 -60 280 -16 71 -81 378 -97 460 -9 47 -22 88 -27 92 -6 4 -41 8
-78 8 l-68 0 0 -2311z"/>
</g>
</svg>
